Coordinates
version=1
nRows=12
nColumns=24
inDegrees=yes

Units are S.I. units (second, meters, Newtons, ...)
Angles are in degrees.

endheader
time	pelvis_tilt	pelvis_list	pelvis_rotation	pelvis_tx	pelvis_ty	pelvis_tz	hip_flexion_r	hip_adduction_r	hip_rotation_r	knee_angle_r	ankle_angle_r	subtalar_angle_r	mtp_angle_r	hip_flexion_l	hip_adduction_l	hip_rotation_l	knee_angle_l	ankle_angle_l	subtalar_angle_l	mtp_angle_l	lumbar_extension	lumbar_bending	lumbar_rotation
      0.50800000	     -2.72129455	      0.55550971	      4.60806454	     -0.74563605	      1.02116368	      0.28983771	     22.11519692	      1.53268014	     -8.38579801	      3.04969931	      5.33117531	      0.01708570	      5.87168612	     -8.09904873	      5.42110983	      5.68535970	    -14.14587364	     11.68111067	     -6.15522079	     -1.29486340	     -4.38811722	     -2.90970460	     -5.25938279
      0.51216667	     -2.63917137	      0.45719233	      4.69890840	     -0.73993397	      1.02100144	      0.28979169	     22.00654705	      1.69974813	     -8.27167676	      2.63790801	      5.48698142	     -0.17624510	      5.89614142	     -8.18439728	      5.27216958	      5.63490396	    -14.81109688	     11.67741355	     -5.94868850	     -1.26024986	     -4.44138899	     -2.79139423	     -5.33029117
      0.51633333	     -2.59596512	      0.35511266	      4.79064501	     -0.73420266	      1.02079146	      0.28974807	     21.94684774	      1.86543297	     -8.15599142	      2.17403956	      5.51686787	     -0.49106480	      5.95559437	     -8.18706361	      5.11414243	      5.50431011	    -15.55580818	     11.70935011	     -5.60925675	     -1.16803929	     -4.43210008	     -2.67771514	     -5.41918313
      0.52050000	     -2.50545420	      0.24501377	      4.88770259	     -0.72843754	      1.02068191	      0.28968989	     21.82003319	      2.04101099	     -7.99864894	      1.70339779	      5.52380839	     -0.86559601	      6.04162341	     -8.23036415	      4.94430680	      5.39072311	    -16.31796117	     11.67911736	     -5.32931499	     -1.03349252	     -4.48041878	     -2.54176005	     -5.49356251
      0.52466667	     -2.42516109	      0.11106785	      4.98763155	     -0.72260195	      1.02057504	      0.28961299	     21.68929038	      2.23764322	     -7.81122723	      1.22923395	      5.50134288	     -1.28209061	      6.13488076	     -8.24679625	      4.74947938	      5.28461442	    -17.10567882	     11.59870085	     -5.07103752	     -0.88231870	     -4.49801490	     -2.36118039	     -5.56559936
      0.52883333	     -2.30972334	     -0.00260450	      5.09058496	     -0.71677104	      1.02054898	      0.28955019	     21.51268745	      2.41721231	     -7.60198949	      0.75447841	      5.37602030	     -1.80107058	      6.24792877	     -8.27973529	      4.56730060	      5.15296169	    -17.92907074	     11.48461278	     -4.79292343	     -0.68590634	     -4.56972988	     -2.22226526	     -5.64794991
      0.53300000	     -2.16256847	     -0.11821565	      5.16729482	     -0.71089479	      1.02057885	      0.28952313	     21.28240335	      2.61398328	     -7.29519156	      0.31137965	      5.09250999	     -2.49115032	      7.17600905	     -8.34419472	      4.38389708	      5.00933213	    -18.75239074	     11.29354687	     -4.59808468	      0.99714823	     -4.67487521	     -2.06889491	     -5.51735451
      0.53716667	     -2.11080748	     -0.23680450	      5.30000041	     -0.70497330	      1.02050554	      0.28942698	     21.16003006	      2.77999885	     -7.12871354	     -0.17062534	      4.91341790	     -2.96371344	      7.24030264	     -8.25580633	      4.18919464	      4.86165224	    -19.66515813	     11.06303150	     -4.29843798	      1.13045437	     -4.63378154	     -1.92315659	     -5.81351483
      0.54133333	     -1.97156102	     -0.35024096	      5.40293799	     -0.69904931	      1.02056952	      0.28940251	     20.91380830	      2.96859870	     -6.80940839	     -0.58599401	      4.54757545	     -3.72504018	      7.35628685	     -8.25264527	      3.98825504	      4.66794161	    -20.59278437	     10.88462753	     -3.97190450	      1.40286835	     -4.73047451	     -1.79868174	     -5.87223278
      0.54550000	     -1.83013445	     -0.47119056	      5.51144333	     -0.69306238	      1.02067530	      0.28937616	     20.64825420	      3.16320288	     -6.50138458	     -0.97454623	      4.14111659	     -4.45477239	      7.48640086	     -8.23761079	      3.77144337	      4.46310654	    -21.53345377	     10.57536739	     -3.69572566	      1.73551498	     -4.80955069	     -1.63643159	     -5.95792900
      0.54966667	     -1.71711950	     -0.58181009	      5.61254980	     -0.68705814	      1.02074561	      0.28938121	     20.40675821	      3.34850802	     -6.16102071	     -1.35107516	      3.69304341	     -5.22036387	      7.63805646	     -8.16725234	      3.56213090	      4.22917055	    -22.51359087	     10.21393579	     -3.40668837	      2.15798619	     -4.84663384	     -1.50340520	     -6.02015345
      0.55383333	     -1.59525132	     -0.69276786	      5.71904920	     -0.68101283	      1.02087391	      0.28939362	     20.13812575	      3.53408864	     -5.82571050	     -1.69326276	      3.18619468	     -5.97440289	      7.79927078	     -8.09109875	      3.34430860	      3.99637951	    -23.51003566	      9.77741693	     -3.13893890	      2.64364025	     -4.89225766	     -1.36455463	     -6.09684337
